<svg xmlns="http://www.w3.org/2000/svg" xmlns:xlink="http://www.w3.org/1999/xlink" version="1.1" x="0px" y="0px" viewBox="0 0 48 48" enable-background="new 0 0 48 48" xml:space="preserve"><g><path d="M24,29.7c-1.8,0-3.5-0.6-5.1-1.6v7.1l4.8,3.3l5.3-3.6v-6.8C27.5,29.2,25.8,29.7,24,29.7L24,29.7z"/><path d="M12.3,37.8v-6.9c-2.4,1.1-4,3.5-4,6.2v4.7C10.6,41.8,12.3,40,12.3,37.8z"/><path d="M33.6,37.8v-7.5c-0.3,0-2-0.1-2.4-0.3v5.5c0,0.3-0.2,0.7-0.5,0.9l-6.4,4.4c-0.2,0.1-0.4,0.2-0.6,0.2   c-0.2,0-0.4-0.1-0.6-0.2l-5.9-4.1c-0.3-0.2-0.4-0.5-0.4-0.9V30c-0.4,0.2-2.2,0.3-2.4,0.3v7.5c0,2.9-2.1,5.4-4.8,6   C13.8,46.5,18.7,48,24,48s10.2-1.5,14.4-4.2C35.6,43.1,33.6,40.7,33.6,37.8z"/><path d="M35.7,30.9v6.9c0,2.2,1.8,4,4,4v-4.7C39.7,34.4,38,32,35.7,30.9z"/><path d="M13.2,28.3c2.1-0.8,3.6-2.6,4-4.7c1.7,2.5,4.1,4,6.7,4h0c2.6,0,5-1.5,6.7-3.9c0.5,2.1,2,3.8,4,4.6l0.1,0   c0.6,0.2,1.4-0.1,1.5-0.8c0.6-2.3,0.9-4.8,0.9-7.4C37.2,9,31.3,0,24,0c-7.3,0-13.2,9-13.2,20.1c0,2.6,0.3,5.1,0.9,7.4   C11.9,28.1,12.6,28.5,13.2,28.3z M24,25.6c-3.8,0-6.9-4.5-6.9-9.9c0-1.1,0.1-2.1,0.4-3.1c1.9,0.6,5.5,0.3,5.9,0.3   c2.7,0,6.3,0.9,7.6,1.8c0,0.4,0.1,0.7,0.1,1.1C30.9,21.1,27.8,25.6,24,25.6L24,25.6z"/></g></svg>