<?xml version="1.0" encoding="UTF-8"?>
<svg width="200px" height="260px" viewBox="0 0 200 260" version="1.1" xmlns="http://www.w3.org/2000/svg" xmlns:xlink="http://www.w3.org/1999/xlink">
    <defs></defs>
    <g id="Page-1" stroke="none" stroke-width="1" fill="none" fill-rule="evenodd">
        <g id="lcn-logo">
            <path d="M124.917194,124.340111 L101.256851,110.777255 C105.195546,106.081958 106.925658,99.9465884 108.371143,90.6107502 C111.891779,67.8722923 95.4192856,60.8421902 98.8529459,40.6740191 C102.286606,20.505848 132.019155,40.6740191 139.690058,49.2862713 C147.360961,57.8985235 148.932201,84.3481512 147.548149,96.9186073 C146.433245,107.044556 138.201067,118.667021 124.917194,124.340111 Z M97.4344208,132.087819 C82.2021227,138.516063 67.5646864,151.268984 64.9455503,173.878236 C61.3303749,205.085629 81.6392656,230.954443 81.7546033,239.894817 C81.869941,248.835191 71.2002575,250.611574 50.8516604,244.06234 C30.5030632,237.513106 25.1994194,219.091146 19.1867323,194.67625 C13.1740452,170.261354 30.2496984,137.505755 64.9455503,127.30381 C70.5539511,125.654719 75.3918924,124.174142 79.5767833,122.754651 C86.2013185,125.736681 92.4915601,129.093478 97.4344208,132.087819 Z" id="Combined-Shape" fill="#173160"></path>
            <path d="M20.6226451,4.55145154 C9.50694428,1.35343985 5.81994137,12.6567245 5.06745331,23.1873606 C4.31496525,33.7179966 9.34475388,84.3962113 46.446753,103.531515 C83.5487522,122.666819 105.54064,123.190713 129.507102,162.168011 C153.473564,201.14531 152.200558,225.031461 161.277563,239.572332 C170.354568,254.113203 184.74991,258.76794 194.454931,251.855561 C204.159953,244.943182 165.602012,164.663101 149.630028,147.203126 C133.658045,129.74315 91.2754278,112.831567 76.1992635,103.531515 C61.1230991,94.2314635 41.8279616,59.2662173 41.8279616,36.5545398 C41.8279616,13.8428624 31.738346,7.74946323 20.6226451,4.55145154 Z" id="Path" fill="#8DA3D0"></path>
            <path d="M67,99.8176135 L101,95 C100.509764,98.0078966 99.8302836,100.551454 98.9615595,102.630672 C94.8893763,102.630672 87.0606943,104.420448 75.4755134,108 L67,99.8176135 Z" id="Path-4" fill="#8DA3D0"></path>
            <path d="M55,82.691609 L101.80298,80 C102.241905,82.8916672 101.947446,85.3743983 100.919601,87.4481931 C96.9406261,87.4481931 82.8529544,89.2987954 58.6565858,93 L55,82.691609 Z" id="Path-4-Copy" fill="#8DA3D0" transform="translate(78.500000, 86.500000) rotate(-7.000000) translate(-78.500000, -86.500000) "></path>
            <path d="M44.0739047,62 L94.5944995,65.8013425 C94.592746,68.6941682 94.7279128,71.4738054 95,74.1402542 C90.9963284,74.1402542 73.3296617,74.4268362 42,75 L44.0739047,62 Z" id="Path-4-Copy-2" fill="#8DA3D0" transform="translate(68.500000, 68.500000) rotate(-17.000000) translate(-68.500000, -68.500000) "></path>
            <path d="M75.2364855,136 L108.323046,143.411163 C109.831255,144.633481 110.822742,145.560364 111.297508,146.191812 C111.772274,146.823261 112.673105,148.092657 114,150 L67,143.952164 L75.2364855,136 Z" id="Path-5" fill="#173160"></path>
            <path d="M64.4089005,152 L119.989872,160.311711 C121.525916,162.083876 122.53181,163.288693 123.007555,163.926161 C123.4833,164.56363 124.147448,165.921576 125,168 L55,164.749041 L64.4089005,152 Z" id="Path-5-Copy" fill="#173160"></path>
            <path d="M55,172 L130.961811,180.453452 C132.018768,181.622055 132.785429,182.818826 133.261792,184.043765 C133.738155,185.268704 133.984225,186.920782 134,189 L55,189 L55,172 Z" id="Path-5-Copy-2" fill="#173160"></path>
        </g>
    </g>
</svg>